P3
2 3
255
124 126 121	110 112 107
124 126 121	110 112 107
124 126 121	110 112 107